<svg width="187" height="172" viewBox="0 0 187 172" fill="none" xmlns="http://www.w3.org/2000/svg">
<g filter="url(#filter0_d_1_25)">
<path d="M171.566 25.5147V76.5644L125.712 102.079L97.5056 86.3746H97.4844L79.8579 76.5644V25.5147L125.712 0L171.566 25.5147Z" fill="url(#paint0_linear_1_25)"/>
<path d="M187 109.483V141.361L158.37 157.29L136.046 144.869H136.025L129.719 141.361V109.483L158.37 93.554L187 109.483Z" fill="url(#paint1_linear_1_25)"/>
<path d="M116.96 104.649V121.577L62.9798 151.607L29.3139 132.866C29.2927 132.866 29.2927 132.845 29.2715 132.845L9 121.567V61.492L62.9798 31.4699L73.179 37.1378V80.2761L76.5012 82.1321C76.5223 82.1321 76.5435 82.1525 76.5647 82.1709L116.96 104.649Z" fill="url(#paint2_linear_1_25)"/>
<g style="mix-blend-mode:screen" opacity="0.4">
<g style="mix-blend-mode:screen" opacity="0.4">
<path d="M165.218 29.043L86.2059 73.0156V29.043L125.712 7.0567L165.218 29.043Z" fill="white"/>
</g>
</g>
<g style="mix-blend-mode:screen" opacity="0.2">
<g style="mix-blend-mode:screen" opacity="0.2">
<path d="M180.398 112.868L136.067 137.535V113.011L158.37 100.611L180.398 112.868Z" fill="white"/>
</g>
</g>
<g style="mix-blend-mode:screen" opacity="0.2">
<g style="mix-blend-mode:screen" opacity="0.2">
<path d="M66.8226 40.6683V65.0204L15.3481 93.6841V65.0408L62.9799 38.5267L66.8226 40.6683Z" fill="white"/>
</g>
</g>
<g style="mix-blend-mode:multiply" opacity="0.3">
<g style="mix-blend-mode:multiply" opacity="0.3">
<path d="M116.959 104.649V121.577L62.9789 151.607L29.313 132.866C35.1532 135.556 40.9511 138.393 46.7067 141.248L55.3401 145.592C57.8793 146.877 60.3974 148.183 62.9154 149.508C62.9366 149.486 62.9578 149.486 62.9789 149.466C67.084 147.018 71.1891 144.571 75.3365 142.207C79.7802 139.635 84.245 137.047 88.7309 134.536C93.2169 132.025 97.6817 129.46 102.189 126.971L114.546 120.2L114.8 105.76L105.934 100.498L96.0524 94.4999C89.5139 90.484 82.9754 86.4253 76.5638 82.1606L116.959 104.649Z" fill="black"/>
</g>
</g>
<g style="mix-blend-mode:multiply" opacity="0.3">
<g style="mix-blend-mode:multiply" opacity="0.3">
<path d="M171.566 37.0563V76.552L125.712 102.067L97.5051 86.3622C102.499 88.4833 107.345 90.8268 112.233 93.1539L119.491 96.7231L125.627 99.8232C129.055 97.7428 132.525 95.7441 135.996 93.7046C139.741 91.4815 143.592 89.3787 147.38 87.2188C151.168 85.0589 155.019 82.9562 158.87 80.8554C162.319 78.9362 165.832 77.0802 169.344 75.2467C169.408 72.3913 169.492 69.5135 169.619 66.6602C169.725 63.3745 169.873 60.0909 170.064 56.7888C170.411 50.2134 170.876 43.6256 171.566 37.0563Z" fill="black"/>
</g>
</g>
<g style="mix-blend-mode:multiply" opacity="0.3">
<g style="mix-blend-mode:multiply" opacity="0.3">
<path d="M187 112.175V141.361L158.37 157.289L136.046 144.869C140.088 146.398 143.981 148.152 147.875 149.927C149.821 150.842 151.768 151.722 153.694 152.68L158.264 154.924L164.316 151.295L171.426 147.237C173.796 145.85 176.208 144.585 178.599 143.28C180.631 142.158 182.683 141.07 184.757 140.017C184.82 138.038 184.863 136.058 185.011 134.061C185.138 131.632 185.244 129.207 185.455 126.76C185.794 121.903 186.281 117.029 187 112.175Z" fill="black"/>
</g>
</g>
<g style="mix-blend-mode:multiply" opacity="0.3">
<g style="mix-blend-mode:multiply" opacity="0.3">
<path d="M158.37 93.554C156.275 95.3691 154.074 97.0008 151.852 98.612C149.631 100.223 147.367 101.753 145.081 103.221C143.939 103.996 142.754 104.688 141.611 105.404C140.468 106.12 139.283 106.872 138.098 107.545C136.152 108.685 134.184 109.807 132.216 110.89C132.173 112.764 132.152 114.622 132.046 116.499C131.962 118.824 131.835 121.167 131.623 123.492C131.539 124.677 131.433 125.84 131.306 127.002C131.179 128.165 131.073 129.346 130.904 130.51C130.565 132.856 130.248 135.181 129.719 137.526V109.483L158.37 93.554Z" fill="black"/>
</g>
</g>
<g style="mix-blend-mode:multiply" opacity="0.3">
<g style="mix-blend-mode:multiply" opacity="0.3">
<path d="M62.9798 31.4785C58.7689 34.4766 54.4522 37.2708 50.1355 40.065C45.7977 42.8184 41.4175 45.5493 37.0162 48.2028C34.8155 49.5468 32.5937 50.8317 30.3719 52.1391L23.7063 56.0326C19.6436 58.3168 15.602 60.6644 11.4969 62.9058C11.4546 66.9461 11.4757 70.9824 11.3488 75.0227L11.1795 81.7716L10.9044 88.5245C10.8198 90.7884 10.7351 93.0319 10.587 95.2733L10.185 102.026C9.86757 106.534 9.52901 111.041 9 115.548V61.5006L62.9798 31.4785Z" fill="black"/>
</g>
</g>
<g style="mix-blend-mode:multiply" opacity="0.3">
<g style="mix-blend-mode:multiply" opacity="0.3">
<path d="M125.72 0C122.208 2.62897 118.568 5.05806 114.907 7.48308C111.247 9.90809 107.544 12.2169 103.841 14.5011C101.979 15.6637 100.074 16.7446 98.2119 17.8664C96.3498 18.9881 94.4665 20.1303 92.541 21.1908C89.1553 23.106 85.7697 25.066 82.3417 26.922C82.2994 29.9813 82.2784 33.0406 82.1515 36.0999C82.0668 39.6059 81.9185 43.1363 81.7281 46.6647C81.6434 48.4187 81.5376 50.1931 81.3895 51.9451C81.2414 53.6971 81.1779 55.4755 81.0086 57.2479C80.6912 60.7539 80.3527 64.2843 79.866 67.8127V25.5147L125.72 0Z" fill="black"/>
</g>
</g>
</g>
<defs>
<filter id="filter0_d_1_25" x="0" y="0" width="187" height="171.29" filterUnits="userSpaceOnUse" color-interpolation-filters="sRGB">
<feFlood flood-opacity="0" result="BackgroundImageFix"/>
<feColorMatrix in="SourceAlpha" type="matrix" values="0 0 0 0 0 0 0 0 0 0 0 0 0 0 0 0 0 0 127 0" result="hardAlpha"/>
<feOffset dx="-5" dy="10"/>
<feGaussianBlur stdDeviation="2"/>
<feComposite in2="hardAlpha" operator="out"/>
<feColorMatrix type="matrix" values="0 0 0 0 0 0 0 0 0 0 0 0 0 0 0 0 0 0 0.25 0"/>
<feBlend mode="normal" in2="BackgroundImageFix" result="effect1_dropShadow_1_25"/>
<feBlend mode="normal" in="SourceGraphic" in2="effect1_dropShadow_1_25" result="shape"/>
</filter>
<linearGradient id="paint0_linear_1_25" x1="125.712" y1="3.57277" x2="125.712" y2="100.037" gradientUnits="userSpaceOnUse">
<stop stop-color="#1DF1FC"/>
<stop offset="0.238" stop-color="#04C6D0"/>
<stop offset="0.44" stop-color="#36E6F1"/>
<stop offset="0.629" stop-color="#05BBCC"/>
<stop offset="0.81" stop-color="#05A5BB"/>
<stop offset="0.983" stop-color="#65E1FC"/>
<stop offset="1" stop-color="#0098BA"/>
<stop offset="1" stop-color="#04A9CE"/>
</linearGradient>
<linearGradient id="paint1_linear_1_25" x1="158.359" y1="96.3583" x2="158.359" y2="149.96" gradientUnits="userSpaceOnUse">
<stop stop-color="#4176B0"/>
<stop offset="0.247" stop-color="#2E4E73"/>
<stop offset="0.75" stop-color="#213E69"/>
<stop offset="1" stop-color="#18294B"/>
</linearGradient>
<linearGradient id="paint2_linear_1_25" x1="39.3366" y1="46.6072" x2="78.0583" y2="134.472" gradientUnits="userSpaceOnUse">
<stop stop-color="#60A049"/>
<stop offset="0.149" stop-color="#959B4A"/>
<stop offset="0.375" stop-color="#4E9696"/>
<stop offset="0.65" stop-color="#59548E"/>
<stop offset="0.96" stop-color="#83327B"/>
<stop offset="1" stop-color="#522C82"/>
</linearGradient>
</defs>
</svg>
