<svg width="49" height="66" viewBox="0 0 49 66" fill="none" xmlns="http://www.w3.org/2000/svg">
<g clip-path="url(#clip0_3_56)">
<path d="M46.989 40.3031L48.1518 39.6313C48.1518 39.6313 44.3713 30.2819 43.1805 29.3134C41.9896 28.3449 35.5353 25.8256 35.5353 25.8256H35.5184V22.5729C41.4166 16.3586 40.9504 9.19261 40.9504 9.19261H44.2028C44.978 9.215 45.4723 8.47601 45.0791 7.81539C44.4837 6.81327 43.2198 5.51444 40.5572 4.5627C39.4056 0.47584 27.3508 -4.7531 25.4522 8.38084L25.6488 10.7434L25.5589 10.609C25.5589 10.609 23.6434 9.70767 23.6434 12.0422C23.6434 14.2312 25.087 16.2298 26.0083 15.0822L26.0588 15.7092C26.2274 17.775 27.3789 19.6337 29.154 20.7198C29.7101 21.0613 30.3392 21.3916 31.0246 21.6771C29.0978 21.5092 27.2104 20.6806 26.0308 19.8576L25.5701 23.5358H18.7395L5.97687 29.5709L6.40941 30.7466C4.29729 31.9447 2.15708 33.3107 0.0674364 34.9006C-0.617878 47.4188 3.53895 66.2799 14.1108 66.0056C14.8523 58.5764 9.79104 57.7199 9.79104 57.7199L8.36424 42.0387L13.4985 45.3641V51.3209L15.3185 51.472L17.1385 53.829V47.7267L22.5986 51.2649V55.822C21.1324 56.4602 19.7281 57.6751 18.8518 59.9537C25.0253 64.6227 30.2381 59.9537 30.2381 59.9537C30.2381 59.9537 47.1575 56.7849 48.9495 54.8255C49.2303 49.1935 48.2866 44.278 46.989 40.3087V40.3031ZM23.194 50.3803L9.0664 41.2269L23.1322 38.618L34.9511 45.812L23.194 50.3859V50.3803ZM28.4125 55.5421C28.4125 55.5421 26.1094 54.8199 23.6659 55.4413V51.3321L35.5353 46.7133L35.6757 52.5469L28.4125 55.5421Z" fill="#3BAE12"/>
</g>
<defs>
<clipPath id="clip0_3_56">
<rect width="49" height="66" fill="white"/>
</clipPath>
</defs>
</svg>
