<svg width="59" height="64" viewBox="0 0 59 64" fill="none" xmlns="http://www.w3.org/2000/svg">
<g clip-path="url(#clip0_3_62)">
<path d="M37.3103 0H14.3227C10.5926 0 7.53886 2.93902 7.2738 6.66384H44.3592C44.0942 2.93902 41.0404 0 37.3103 0Z" fill="#3BAE12"/>
<path d="M14.3227 64H37.3103C40.0155 64 42.3641 62.4546 43.5528 60.1837H8.0802C9.26894 62.4529 11.6175 64 14.3227 64Z" fill="#3BAE12"/>
<path d="M24.9619 50.6086V32.2149C24.9619 30.1074 26.6406 28.4002 28.7129 28.4002H44.3801V9.41174H7.25293V17.4446C7.91637 17.3156 8.60231 17.2453 9.30431 17.2453C15.2721 17.2453 20.109 22.166 20.109 28.2335C20.109 34.3011 15.2705 39.2218 9.30431 39.2218C8.60231 39.2218 7.91798 39.1532 7.25293 39.0225V56.8069C7.25293 57.0176 7.26417 57.2267 7.28185 57.4342H44.3512C44.3689 57.2267 44.3801 57.0192 44.3801 56.8069V54.42H28.7129C26.6406 54.42 24.9619 52.7128 24.9619 50.6054V50.6086Z" fill="#3BAE12"/>
<path fill-rule="evenodd" clip-rule="evenodd" d="M36.2405 45.9036H31.696V47.2971H36.2405V45.9036Z" fill="#404C5A"/>
<path fill-rule="evenodd" clip-rule="evenodd" d="M42.0894 45.9036H37.5449V47.2971H42.0894V45.9036Z" fill="#404C5A"/>
<path fill-rule="evenodd" clip-rule="evenodd" d="M47.9383 45.9036H43.3954V47.2971H47.9383V45.9036Z" fill="#404C5A"/>
<path fill-rule="evenodd" clip-rule="evenodd" d="M53.7872 45.9036H49.2443V47.2971H53.7872V45.9036Z" fill="#404C5A"/>
<path fill-rule="evenodd" clip-rule="evenodd" d="M41.4983 37.2711H31.696V38.0128H41.4983V37.2711Z" fill="#262C44"/>
<path fill-rule="evenodd" clip-rule="evenodd" d="M50.4813 38.4033H31.696V39.145H50.4813V38.4033Z" fill="#262C44"/>
<path fill-rule="evenodd" clip-rule="evenodd" d="M41.8388 40.3719H31.7682V44.4414H41.8388V40.3719Z" fill="#FDFFFC"/>
<path fill-rule="evenodd" clip-rule="evenodd" d="M28.5378 30.9324H57.7133C58.4217 30.9324 59.0016 31.5483 59.0016 32.3014V50.0139C59.0016 50.7671 58.4233 51.383 57.7133 51.383H28.5378C27.8294 51.383 27.2495 50.7671 27.2495 50.0139V32.3014C27.2495 31.5483 27.8294 30.9324 28.5378 30.9324Z" fill="#3BAE12"/>
<path fill-rule="evenodd" clip-rule="evenodd" d="M59 33.0807H27.2495V35.4283H59V33.0807Z" fill="#FDFFFC"/>
<path fill-rule="evenodd" clip-rule="evenodd" d="M33.6542 48.011H29.1097V49.4046H33.6542V48.011Z" fill="#FDFFFC"/>
<path fill-rule="evenodd" clip-rule="evenodd" d="M39.5031 48.011H34.9602V49.4046H39.5031V48.011Z" fill="#FDFFFC"/>
<path fill-rule="evenodd" clip-rule="evenodd" d="M45.352 48.011H40.8091V49.4046H45.352V48.011Z" fill="#FDFFFC"/>
<path fill-rule="evenodd" clip-rule="evenodd" d="M50.6323 48.011H46.0878V49.4046H50.6323V48.011Z" fill="#FDFFFC"/>
<path fill-rule="evenodd" clip-rule="evenodd" d="M57.0515 48.011H52.507V49.4046H57.0515V48.011Z" fill="#FDFFFC"/>
<path fill-rule="evenodd" clip-rule="evenodd" d="M38.912 40.1203V39.3786H29.1097V40.1203" fill="#FDFFFC"/>
<path fill-rule="evenodd" clip-rule="evenodd" d="M47.895 41.2541V40.5124H29.1097V41.2541" fill="#FDFFFC"/>
<path fill-rule="evenodd" clip-rule="evenodd" d="M39.2525 42.481H29.1819V46.5505H39.2525V42.481Z" fill="#FDFFFC"/>
<path d="M10.0496 29.3314L9.89221 29.2971V31.3375C10.5878 31.2346 11.0135 30.8017 11.0135 30.243C11.0135 29.7414 10.7115 29.4686 10.0496 29.3314Z" fill="#3BAE12"/>
<path d="M9.30429 18.7728C4.1654 18.7728 0 23.0089 0 28.2351C0 33.4613 4.1654 37.6975 9.30429 37.6975C14.4432 37.6975 18.6086 33.4613 18.6086 28.2351C18.6086 23.0089 14.4432 18.7728 9.30429 18.7728ZM9.92758 32.3749V33.6394H8.93V32.3292C7.72038 32.1348 6.70031 31.349 6.59911 30.0959L7.78624 29.8558C7.84246 30.6873 8.36936 31.1317 8.97337 31.2918V29.0928L8.57016 29.0013C7.67379 28.8298 6.77742 28.3054 6.77742 27.1095C6.77742 25.9136 7.64006 25.1376 8.92839 25.002V23.7261H9.92597V25.0249C11.1468 25.2193 11.9661 26.0394 12.0545 27.1896L10.8898 27.4068C10.8673 26.6668 10.4304 26.2224 9.89224 26.0509V28.1583L10.3404 28.2498C11.4055 28.4883 12.1444 29.0814 12.1444 30.1988C12.1444 31.4404 11.2368 32.2507 9.92597 32.3749H9.92758Z" fill="#3BAE12"/>
<path d="M8.97498 26.0051C8.36937 26.1195 7.98865 26.5181 7.98865 27.0425C7.98865 27.5669 8.31314 27.8055 8.85129 27.9313L8.97498 27.9541" fill="#3BAE12"/>
</g>
<defs>
<clipPath id="clip0_3_62">
<rect width="59" height="64" fill="white"/>
</clipPath>
</defs>
</svg>
