<svg width="80" height="57" viewBox="0 0 80 57" fill="none" xmlns="http://www.w3.org/2000/svg">
<g clip-path="url(#clip0_3_92)">
<path d="M38.3891 34.1634C38.3891 34.1634 38.3426 34.1634 38.3078 34.1634C38.2846 34.1634 38.2556 34.1634 38.2207 34.1693C38.2033 34.187 38.1917 34.1988 38.1743 34.2165V34.2283C39.3295 34.7185 40.5776 35.0315 41.8838 35.1378C41.8431 35.1083 41.7851 35.0787 41.7096 35.061C40.595 34.7716 39.4921 34.4587 38.3775 34.1575L38.3891 34.1634Z" fill="#ED1C24"/>
<path d="M27.9515 20.2323C29.0197 20.2323 30.0414 20.0669 31.005 19.7657C34.6796 18.5964 37.4138 15.3543 37.8666 11.3563C37.9131 10.9606 37.9363 10.559 37.9363 10.1516C37.9189 4.5059 33.7044 0.0118005 27.9747 0.017706C22.1929 0.0236115 18.0887 4.60038 18.048 10.0748C18.0422 15.7264 22.4251 20.2264 27.9515 20.2323Z" fill="#3BAE12"/>
<path d="M54.1499 27.4193C54.655 26.1555 53.97 24.7323 52.6754 24.3839C51.5957 24.0886 50.4811 24.6673 50.0515 25.7185C49.2156 27.7677 47.2244 29.2146 44.9082 29.2146C43.8923 29.2146 42.9345 28.937 42.116 28.4527V28.4823C41.7909 28.3051 41.6167 28.2165 41.4542 28.1161C39.8868 27.1004 38.569 25.8012 37.3674 24.372C36.2992 23.1024 34.9757 22.4232 33.3096 22.4409C32.4272 22.4527 31.5449 22.4527 30.6625 22.4527C29.2228 22.4527 27.7774 22.4468 26.3377 22.4468C23.7196 22.4468 21.1944 21.9331 18.7388 21.0295C15.1281 19.6949 11.8134 17.7933 8.77149 15.4252C6.89064 13.9606 5.10847 12.3602 3.29729 10.7953C2.56584 10.1693 1.59059 10.0216 0.84173 10.5059C0.145119 10.9547 -0.208992 11.8878 0.139314 12.7087C0.667578 13.9547 1.19004 15.2185 1.88665 16.3642C3.44822 18.939 5.43937 21.1772 7.55822 23.2854C9.91509 25.6358 12.4345 27.7972 15.3835 29.3622C15.8421 29.6043 16.3123 29.8169 16.8406 30.0768C16.6142 30.5256 16.411 30.9153 16.2252 31.311C15.0932 33.7146 14.5243 36.2716 14.2341 38.9055C14.0425 40.6831 13.909 42.4665 14.1586 44.2441C14.5766 47.2323 15.7782 49.8779 17.7926 52.1102C20.0508 54.6142 22.8082 56.2441 26.1345 56.6929C27.7832 56.9173 29.4667 56.9232 31.1327 56.8878C34.0062 56.8228 36.1077 55.4232 37.4312 52.8189C37.9827 51.7323 38.1453 50.5571 38.1453 49.3583C38.1511 44.5098 38.1453 39.6614 38.1453 34.813C38.1453 34.624 38.1627 34.435 38.1801 34.2461V34.2342C38.1801 34.2342 38.1801 34.2047 38.1801 34.187C38.2381 34.187 38.2788 34.1811 38.3078 34.1752C38.3368 34.1752 38.3659 34.1752 38.3891 34.1752C39.4978 34.4764 40.6066 34.7894 41.7212 35.0787C41.7967 35.0965 41.8489 35.126 41.8954 35.1555C42.2146 35.1791 42.5339 35.1909 42.8532 35.1909C47.9617 35.1909 52.3387 31.9783 54.1499 27.4252V27.4193Z" fill="#3BAE12"/>
<path d="M38.3136 34.1634C38.2788 34.1634 38.2382 34.1693 38.1859 34.1752C38.1859 34.1929 38.1859 34.2047 38.1859 34.2224C38.2033 34.2047 38.2149 34.1929 38.2324 34.1752C38.2672 34.1752 38.2962 34.1693 38.3194 34.1693L38.3136 34.1634Z" fill="#ED1C24"/>
<path d="M78.4965 10.2283C77.7708 10.1102 77.1613 10.376 76.6272 10.8898C73.0687 14.309 69.1793 17.2441 64.7965 19.4941C61.6849 21.0945 58.4457 22.1102 55.0323 22.3878C54.1151 22.4646 53.1863 22.4823 52.24 22.4468C51.6131 22.4232 50.9861 22.4114 50.3592 22.4055C49.0588 22.3937 47.7527 22.4232 46.4524 22.4586C45.837 22.4764 45.2275 22.6181 44.6818 22.8957C43.0215 23.7401 42.145 25.1457 42.1101 27.0472C42.1043 27.4665 42.1101 27.8917 42.1101 28.4409C42.9287 28.9252 43.8865 29.2027 44.9024 29.2027C47.2244 29.2027 49.2098 27.7618 50.0457 25.7067C50.4753 24.6555 51.5899 24.0768 52.6696 24.372C53.9642 24.7205 54.6491 26.1496 54.1441 27.4075C52.3329 31.9606 47.9559 35.1732 42.8474 35.1732C42.5223 35.1732 42.203 35.1614 41.8896 35.1378C42.0289 35.2382 42.0405 35.3976 42.0405 35.5925C42.0637 39.1831 42.0869 42.7677 42.1101 46.3583C42.116 47.5807 42.0985 48.809 42.1276 50.0315C42.203 53.1437 44.496 56.0551 47.4915 56.6634C49.8367 57.1358 52.2342 57.0709 54.5737 56.6279C57.871 56.002 60.6226 54.3189 62.7937 51.7086C64.9242 49.1457 66.1258 46.1811 66.1607 42.8031C66.1781 41.3268 66.091 39.8445 65.9459 38.3799C65.6672 35.6043 64.9822 32.935 63.618 30.4842C63.5484 30.3602 63.5019 30.2185 63.4497 30.1004C64.4307 29.5216 65.3944 29.0138 66.3 28.4114C69.4986 26.2854 72.2734 23.6516 74.8044 20.7579C76.842 18.4252 78.7345 15.998 79.8316 13.0216C80.3019 11.7342 79.7736 10.435 78.4965 10.2224V10.2283ZM59.9898 41.9173H54.4228V47.6752H51.5608V41.9173H45.9938V39.0059H51.5608V33.248H54.4228V39.0059H59.9898V41.9173Z" fill="#4B4D4F"/>
<path d="M45.6687 17.935C46.6614 18.7736 47.8166 19.4173 49.0879 19.8071C49.9993 20.0846 50.9745 20.2382 51.9846 20.2323C52.9483 20.2323 53.8597 20.1023 54.7188 19.8661C59.1307 18.6614 62.0274 14.622 61.9694 10.1397C62.0623 4.78345 57.929 0.059039 52.0833 -1.61729e-05C46.5394 -0.0531658 42.1508 4.38778 42.116 10.063C42.116 10.1397 42.116 10.2165 42.116 10.2992C42.1624 13.3878 43.5266 16.122 45.6629 17.935H45.6687Z" fill="#4B4D4F"/>
</g>
<defs>
<clipPath id="clip0_3_92">
<rect width="80" height="57" fill="white"/>
</clipPath>
</defs>
</svg>
