<svg width="236" height="30" viewBox="0 0 236 30" fill="none" xmlns="http://www.w3.org/2000/svg">
<path d="M1.8 29C1.50667 29 1.26667 28.9067 1.08 28.72C0.893333 28.5333 0.8 28.2933 0.8 28V2C0.8 1.70667 0.893333 1.46667 1.08 1.28C1.26667 1.09333 1.50667 0.999998 1.8 0.999998H13C15.2133 0.999998 17.1333 1.34667 18.76 2.04C20.4133 2.70667 21.6933 3.72 22.6 5.08C23.5333 6.44 24 8.16 24 10.24C24 12.2933 23.5333 13.9867 22.6 15.32C21.6933 16.6533 20.4133 17.64 18.76 18.28C17.1333 18.92 15.2133 19.24 13 19.24H8.24V28C8.24 28.2933 8.13333 28.5333 7.92 28.72C7.73333 28.9067 7.49333 29 7.2 29H1.8ZM8.12 13.72H12.8C13.9467 13.72 14.8533 13.4267 15.52 12.84C16.2133 12.2533 16.56 11.36 16.56 10.16C16.56 9.14667 16.2667 8.29333 15.68 7.6C15.0933 6.90667 14.1333 6.56 12.8 6.56H8.12V13.72ZM28.3913 29C28.0979 29 27.8579 28.9067 27.6712 28.72C27.4846 28.5333 27.3913 28.2933 27.3913 28V1.6C27.3913 1.30666 27.4846 1.06667 27.6712 0.88C27.8579 0.693332 28.0979 0.599998 28.3913 0.599998H33.1113C33.4046 0.599998 33.6446 0.693332 33.8313 0.88C34.0179 1.06667 34.1113 1.30666 34.1113 1.6V28C34.1113 28.2933 34.0179 28.5333 33.8313 28.72C33.6446 28.9067 33.4046 29 33.1113 29H28.3913ZM45.0766 29.4C43.6366 29.4 42.3432 29.1333 41.1966 28.6C40.0766 28.04 39.1832 27.2933 38.5166 26.36C37.8499 25.4267 37.5166 24.3733 37.5166 23.2C37.5166 21.3067 38.2899 19.8133 39.8366 18.72C41.3832 17.6 43.4366 16.84 45.9966 16.44L50.9966 15.68V15.12C50.9966 14.16 50.7966 13.4267 50.3966 12.92C49.9966 12.4133 49.2632 12.16 48.1966 12.16C47.4499 12.16 46.8366 12.3067 46.3566 12.6C45.9032 12.8933 45.5432 13.2933 45.2766 13.8C45.0366 14.1467 44.7032 14.32 44.2766 14.32H39.7966C39.5032 14.32 39.2766 14.24 39.1166 14.08C38.9566 13.8933 38.8899 13.68 38.9166 13.44C38.9166 12.96 39.0899 12.4133 39.4366 11.8C39.8099 11.16 40.3699 10.5333 41.1166 9.92C41.8632 9.30667 42.8232 8.8 43.9966 8.4C45.1699 8 46.5832 7.8 48.2366 7.8C49.9699 7.8 51.4499 8 52.6766 8.4C53.9032 8.8 54.8899 9.36 55.6366 10.08C56.4099 10.8 56.9832 11.6533 57.3566 12.64C57.7299 13.6 57.9166 14.6667 57.9166 15.84V28C57.9166 28.2933 57.8099 28.5333 57.5966 28.72C57.4099 28.9067 57.1832 29 56.9166 29H52.2766C51.9832 29 51.7432 28.9067 51.5566 28.72C51.3699 28.5333 51.2766 28.2933 51.2766 28V26.6C50.9299 27.1067 50.4632 27.5733 49.8766 28C49.2899 28.4267 48.5966 28.76 47.7966 29C47.0232 29.2667 46.1166 29.4 45.0766 29.4ZM46.9566 24.84C47.7299 24.84 48.4232 24.68 49.0366 24.36C49.6766 24.0133 50.1699 23.4933 50.5166 22.8C50.8899 22.08 51.0766 21.1867 51.0766 20.12V19.56L47.6766 20.16C46.4232 20.3733 45.5032 20.7067 44.9166 21.16C44.3566 21.5867 44.0766 22.0933 44.0766 22.68C44.0766 23.1333 44.2099 23.52 44.4766 23.84C44.7432 24.16 45.0899 24.4133 45.5166 24.6C45.9432 24.76 46.4232 24.84 46.9566 24.84ZM63.4303 29C63.137 29 62.897 28.9067 62.7103 28.72C62.5236 28.5333 62.4303 28.2933 62.4303 28V9.2C62.4303 8.90667 62.5236 8.66667 62.7103 8.48C62.897 8.29333 63.137 8.2 63.4303 8.2H68.0303C68.3236 8.2 68.5636 8.29333 68.7503 8.48C68.937 8.66667 69.0303 8.90667 69.0303 9.2V10.72C69.7236 9.89333 70.6303 9.2 71.7503 8.64C72.8703 8.08 74.1903 7.8 75.7103 7.8C77.257 7.8 78.617 8.14667 79.7903 8.84C80.9903 9.53333 81.9236 10.56 82.5903 11.92C83.2836 13.2533 83.6303 14.8933 83.6303 16.84V28C83.6303 28.2933 83.5236 28.5333 83.3103 28.72C83.1236 28.9067 82.897 29 82.6303 29H77.5903C77.3236 29 77.0836 28.9067 76.8703 28.72C76.6836 28.5333 76.5903 28.2933 76.5903 28V17.08C76.5903 15.8267 76.2836 14.8667 75.6703 14.2C75.0836 13.5067 74.2036 13.16 73.0303 13.16C71.937 13.16 71.057 13.5067 70.3903 14.2C69.7503 14.8667 69.4303 15.8267 69.4303 17.08V28C69.4303 28.2933 69.3236 28.5333 69.1103 28.72C68.9236 28.9067 68.697 29 68.4303 29H63.4303ZM98.5391 29C96.8324 29 95.3524 28.7333 94.0991 28.2C92.8724 27.64 91.9257 26.7867 91.2591 25.64C90.5924 24.4667 90.2591 22.96 90.2591 21.12V13.44H87.1391C86.8457 13.44 86.5924 13.3467 86.3791 13.16C86.1924 12.9733 86.0991 12.7333 86.0991 12.44V9.2C86.0991 8.90667 86.1924 8.66667 86.3791 8.48C86.5924 8.29333 86.8457 8.2 87.1391 8.2H90.2591V1.6C90.2591 1.30666 90.3524 1.06667 90.5391 0.88C90.7524 0.693332 90.9924 0.599998 91.2591 0.599998H95.8991C96.1924 0.599998 96.4324 0.693332 96.6191 0.88C96.8057 1.06667 96.8991 1.30666 96.8991 1.6V8.2H101.899C102.192 8.2 102.432 8.29333 102.619 8.48C102.806 8.66667 102.899 8.90667 102.899 9.2V12.44C102.899 12.7333 102.806 12.9733 102.619 13.16C102.432 13.3467 102.192 13.44 101.899 13.44H96.8991V20.56C96.8991 21.4667 97.0724 22.1867 97.4191 22.72C97.7657 23.2533 98.3524 23.52 99.1791 23.52H102.259C102.552 23.52 102.792 23.6133 102.979 23.8C103.166 23.9867 103.259 24.2267 103.259 24.52V28C103.259 28.2933 103.166 28.5333 102.979 28.72C102.792 28.9067 102.552 29 102.259 29H98.5391Z" fill="#434343"/>
<path d="M108.011 29C107.744 29 107.504 28.9067 107.291 28.72C107.104 28.5333 107.011 28.2933 107.011 28V2C107.011 1.70667 107.104 1.46667 107.291 1.28C107.504 1.09333 107.744 0.999998 108.011 0.999998H112.331C112.758 0.999998 113.078 1.12 113.291 1.36C113.531 1.57333 113.678 1.74667 113.731 1.88L120.771 14.52L127.811 1.88C127.891 1.74667 128.024 1.57333 128.211 1.36C128.424 1.12 128.758 0.999998 129.211 0.999998H133.491C133.784 0.999998 134.024 1.09333 134.211 1.28C134.424 1.46667 134.531 1.70667 134.531 2V28C134.531 28.2933 134.424 28.5333 134.211 28.72C134.024 28.9067 133.784 29 133.491 29H128.731C128.438 29 128.184 28.9067 127.971 28.72C127.784 28.5333 127.691 28.2933 127.691 28V13L123.171 21.36C123.064 21.6 122.904 21.8133 122.691 22C122.478 22.1867 122.184 22.28 121.811 22.28H119.731C119.358 22.28 119.064 22.1867 118.851 22C118.638 21.8133 118.464 21.6 118.331 21.36L113.811 13V28C113.811 28.2933 113.718 28.5333 113.531 28.72C113.344 28.9067 113.104 29 112.811 29H108.011ZM145.897 29.4C144.457 29.4 143.164 29.1333 142.017 28.6C140.897 28.04 140.004 27.2933 139.337 26.36C138.67 25.4267 138.337 24.3733 138.337 23.2C138.337 21.3067 139.11 19.8133 140.657 18.72C142.204 17.6 144.257 16.84 146.817 16.44L151.817 15.68V15.12C151.817 14.16 151.617 13.4267 151.217 12.92C150.817 12.4133 150.084 12.16 149.017 12.16C148.27 12.16 147.657 12.3067 147.177 12.6C146.724 12.8933 146.364 13.2933 146.097 13.8C145.857 14.1467 145.524 14.32 145.097 14.32H140.617C140.324 14.32 140.097 14.24 139.937 14.08C139.777 13.8933 139.71 13.68 139.737 13.44C139.737 12.96 139.91 12.4133 140.257 11.8C140.63 11.16 141.19 10.5333 141.937 9.92C142.684 9.30667 143.644 8.8 144.817 8.4C145.99 8 147.404 7.8 149.057 7.8C150.79 7.8 152.27 8 153.497 8.4C154.724 8.8 155.71 9.36 156.457 10.08C157.23 10.8 157.804 11.6533 158.177 12.64C158.55 13.6 158.737 14.6667 158.737 15.84V28C158.737 28.2933 158.63 28.5333 158.417 28.72C158.23 28.9067 158.004 29 157.737 29H153.097C152.804 29 152.564 28.9067 152.377 28.72C152.19 28.5333 152.097 28.2933 152.097 28V26.6C151.75 27.1067 151.284 27.5733 150.697 28C150.11 28.4267 149.417 28.76 148.617 29C147.844 29.2667 146.937 29.4 145.897 29.4ZM147.777 24.84C148.55 24.84 149.244 24.68 149.857 24.36C150.497 24.0133 150.99 23.4933 151.337 22.8C151.71 22.08 151.897 21.1867 151.897 20.12V19.56L148.497 20.16C147.244 20.3733 146.324 20.7067 145.737 21.16C145.177 21.5867 144.897 22.0933 144.897 22.68C144.897 23.1333 145.03 23.52 145.297 23.84C145.564 24.16 145.91 24.4133 146.337 24.6C146.764 24.76 147.244 24.84 147.777 24.84ZM164.251 29C163.957 29 163.717 28.9067 163.531 28.72C163.344 28.5333 163.251 28.2933 163.251 28V9.2C163.251 8.90667 163.344 8.66667 163.531 8.48C163.717 8.29333 163.957 8.2 164.251 8.2H168.851C169.144 8.2 169.384 8.29333 169.571 8.48C169.757 8.66667 169.851 8.90667 169.851 9.2V10.72C170.544 9.89333 171.451 9.2 172.571 8.64C173.691 8.08 175.011 7.8 176.531 7.8C178.077 7.8 179.437 8.14667 180.611 8.84C181.811 9.53333 182.744 10.56 183.411 11.92C184.104 13.2533 184.451 14.8933 184.451 16.84V28C184.451 28.2933 184.344 28.5333 184.131 28.72C183.944 28.9067 183.717 29 183.451 29H178.411C178.144 29 177.904 28.9067 177.691 28.72C177.504 28.5333 177.411 28.2933 177.411 28V17.08C177.411 15.8267 177.104 14.8667 176.491 14.2C175.904 13.5067 175.024 13.16 173.851 13.16C172.757 13.16 171.877 13.5067 171.211 14.2C170.571 14.8667 170.251 15.8267 170.251 17.08V28C170.251 28.2933 170.144 28.5333 169.931 28.72C169.744 28.9067 169.517 29 169.251 29H164.251ZM196.675 29.4C195.395 29.4 194.235 29.2 193.195 28.8C192.181 28.3733 191.301 27.76 190.555 26.96C189.835 26.1333 189.275 25.1467 188.875 24C188.475 22.8267 188.248 21.4933 188.195 20C188.168 19.4667 188.155 19 188.155 18.6C188.155 18.1733 188.168 17.7067 188.195 17.2C188.248 15.76 188.475 14.4667 188.875 13.32C189.275 12.1733 189.835 11.1867 190.555 10.36C191.275 9.53333 192.155 8.90667 193.195 8.48C194.235 8.02667 195.395 7.8 196.675 7.8C198.008 7.8 199.155 8.02667 200.115 8.48C201.075 8.90667 201.888 9.46667 202.555 10.16V1.6C202.555 1.30666 202.648 1.06667 202.835 0.88C203.021 0.693332 203.261 0.599998 203.555 0.599998H208.435C208.701 0.599998 208.928 0.693332 209.115 0.88C209.328 1.06667 209.435 1.30666 209.435 1.6V28C209.435 28.2933 209.328 28.5333 209.115 28.72C208.928 28.9067 208.701 29 208.435 29H203.915C203.621 29 203.381 28.9067 203.195 28.72C203.008 28.5333 202.915 28.2933 202.915 28V26.72C202.275 27.4933 201.448 28.1333 200.435 28.64C199.421 29.1467 198.168 29.4 196.675 29.4ZM198.835 24.04C199.741 24.04 200.448 23.8533 200.955 23.48C201.488 23.08 201.875 22.5733 202.115 21.96C202.381 21.3467 202.528 20.68 202.555 19.96C202.581 19.4267 202.595 18.92 202.595 18.44C202.595 17.96 202.581 17.4667 202.555 16.96C202.528 16.2933 202.381 15.68 202.115 15.12C201.848 14.5333 201.448 14.0667 200.915 13.72C200.381 13.3467 199.688 13.16 198.835 13.16C197.955 13.16 197.248 13.3467 196.715 13.72C196.208 14.0933 195.848 14.6 195.635 15.24C195.421 15.88 195.288 16.5867 195.235 17.36C195.155 18.1867 195.155 19.0133 195.235 19.84C195.288 20.6133 195.421 21.32 195.635 21.96C195.848 22.6 196.208 23.1067 196.715 23.48C197.248 23.8533 197.955 24.04 198.835 24.04ZM221.789 29.4C220.269 29.4 218.909 29.0533 217.709 28.36C216.536 27.6667 215.616 26.6533 214.949 25.32C214.282 23.96 213.949 22.3067 213.949 20.36V9.2C213.949 8.90667 214.042 8.66667 214.229 8.48C214.416 8.29333 214.656 8.2 214.949 8.2H219.949C220.242 8.2 220.482 8.29333 220.669 8.48C220.856 8.66667 220.949 8.90667 220.949 9.2V20.12C220.949 22.7333 222.122 24.04 224.469 24.04C225.562 24.04 226.429 23.7067 227.069 23.04C227.736 22.3467 228.069 21.3733 228.069 20.12V9.2C228.069 8.90667 228.162 8.66667 228.349 8.48C228.536 8.29333 228.776 8.2 229.069 8.2H234.069C234.362 8.2 234.602 8.29333 234.789 8.48C234.976 8.66667 235.069 8.90667 235.069 9.2V28C235.069 28.2933 234.976 28.5333 234.789 28.72C234.602 28.9067 234.362 29 234.069 29H229.429C229.162 29 228.922 28.9067 228.709 28.72C228.522 28.5333 228.429 28.2933 228.429 28V26.48C227.736 27.44 226.829 28.1733 225.709 28.68C224.616 29.16 223.309 29.4 221.789 29.4Z" fill="#3BAE12"/>
</svg>
